<!--
  Prompt: "The keys need to be more distinctive. Its difficult to see their differentiation. Here's a vague idea on the typing animation: - Each leg has it's own function that makes it mirror back and forth along both axes; oscillate along both axes; translate along both axes; - Each function uses perlin noise to give it a more natural motion effect"

  Added 3D key gradients. Exploring Perlin noise animation concept.
-->
<svg xmlns="http://www.w3.org/2000/svg" viewBox="0 0 200 120" width="400" height="240">
  <defs>
    <!-- Key gradient for 3D effect -->
    <linearGradient id="keyGrad" x1="0%" y1="0%" x2="0%" y2="100%">
      <stop offset="0%" style="stop-color:#4a4a4a"/>
      <stop offset="100%" style="stop-color:#2a2a2a"/>
    </linearGradient>
    <linearGradient id="keyTop" x1="0%" y1="0%" x2="0%" y2="100%">
      <stop offset="0%" style="stop-color:#666"/>
      <stop offset="100%" style="stop-color:#444"/>
    </linearGradient>
  </defs>

  <style>
    .body { fill: #dc7974; }
    .keyboard-base { fill: #0a0a0a; }
    .key-well { fill: #111; }
    .key-cap { fill: url(#keyTop); }
    .key-side { fill: #222; }
  </style>

  <!-- Keyboard base -->
  <rect class="keyboard-base" x="25" y="72" width="150" height="42" rx="5"/>

  <!-- Key wells (dark gaps between keys) -->
  <rect class="key-well" x="30" y="76" width="140" height="34" rx="2"/>

  <!-- Keys with 3D effect - top row -->
  <g class="keys-row-1">
    <rect class="key-cap" x="34" y="78" width="13" height="9" rx="2"/>
    <rect class="key-cap" x="49" y="78" width="13" height="9" rx="2"/>
    <rect class="key-cap" x="64" y="78" width="13" height="9" rx="2"/>
    <rect class="key-cap" x="79" y="78" width="13" height="9" rx="2"/>
    <rect class="key-cap" x="94" y="78" width="13" height="9" rx="2"/>
    <rect class="key-cap" x="109" y="78" width="13" height="9" rx="2"/>
    <rect class="key-cap" x="124" y="78" width="13" height="9" rx="2"/>
    <rect class="key-cap" x="139" y="78" width="13" height="9" rx="2"/>
    <rect class="key-cap" x="154" y="78" width="13" height="9" rx="2"/>
  </g>

  <!-- Keys - middle row (offset) -->
  <g class="keys-row-2">
    <rect class="key-cap" x="37" y="89" width="13" height="9" rx="2"/>
    <rect class="key-cap" x="52" y="89" width="13" height="9" rx="2"/>
    <rect class="key-cap" x="67" y="89" width="13" height="9" rx="2"/>
    <rect class="key-cap" x="82" y="89" width="13" height="9" rx="2"/>
    <rect class="key-cap" x="97" y="89" width="13" height="9" rx="2"/>
    <rect class="key-cap" x="112" y="89" width="13" height="9" rx="2"/>
    <rect class="key-cap" x="127" y="89" width="13" height="9" rx="2"/>
    <rect class="key-cap" x="142" y="89" width="13" height="9" rx="2"/>
  </g>

  <!-- Keys - bottom row with spacebar -->
  <g class="keys-row-3">
    <rect class="key-cap" x="40" y="100" width="13" height="8" rx="2"/>
    <rect class="key-cap" x="55" y="100" width="13" height="8" rx="2"/>
    <rect class="key-cap" x="70" y="100" width="50" height="8" rx="2"/>
    <rect class="key-cap" x="122" y="100" width="13" height="8" rx="2"/>
    <rect class="key-cap" x="137" y="100" width="13" height="8" rx="2"/>
    <rect class="key-cap" x="152" y="100" width="13" height="8" rx="2"/>
  </g>

  <!-- Claudito body -->
  <g id="claudito" transform="translate(100, 18)">
    <!-- Head: ▐▛███▜▌ -->
    <g class="body">
      <rect x="-28" y="0" width="4" height="16"/>
      <rect x="-24" y="0" width="8" height="8"/>
      <rect x="-24" y="8" width="4" height="8"/>
      <rect x="-16" y="0" width="24" height="16"/>
      <rect x="8" y="0" width="8" height="8"/>
      <rect x="12" y="8" width="4" height="8"/>
      <rect x="16" y="0" width="4" height="16"/>
    </g>

    <!-- Torso: ▝▜█████▛▘ -->
    <g class="body">
      <rect x="-36" y="16" width="4" height="8"/>
      <rect x="-32" y="16" width="8" height="8"/>
      <rect x="-28" y="24" width="4" height="8"/>
      <rect x="-24" y="16" width="40" height="16"/>
      <rect x="16" y="16" width="8" height="8"/>
      <rect x="16" y="24" width="4" height="8"/>
      <rect x="24" y="16" width="4" height="8"/>
    </g>

    <!-- Four legs with individual IDs for animation -->
    <rect id="leg0" class="body" x="-16" y="32" width="4" height="24"/>
    <rect id="leg1" class="body" x="-10" y="32" width="4" height="24"/>
    <rect id="leg2" class="body" x="6" y="32" width="4" height="24"/>
    <rect id="leg3" class="body" x="12" y="32" width="4" height="24"/>
  </g>

  <script type="text/javascript"><![CDATA[
    // Perlin noise implementation
    class PerlinNoise {
      constructor(seed = Math.random() * 10000) {
        this.p = [];
        for (let i = 0; i < 256; i++) this.p[i] = i;
        // Shuffle with seed
        let n = seed;
        for (let i = 255; i > 0; i--) {
          n = (n * 16807) % 2147483647;
          const j = n % (i + 1);
          [this.p[i], this.p[j]] = [this.p[j], this.p[i]];
        }
        this.p = this.p.concat(this.p);
      }

      fade(t) { return t * t * t * (t * (t * 6 - 15) + 10); }
      lerp(a, b, t) { return a + t * (b - a); }
      grad(hash, x) {
        return (hash & 1) === 0 ? x : -x;
      }

      noise1D(x) {
        const xi = Math.floor(x) & 255;
        const xf = x - Math.floor(x);
        const u = this.fade(xf);
        return this.lerp(
          this.grad(this.p[xi], xf),
          this.grad(this.p[xi + 1], xf - 1),
          u
        );
      }
    }

    // Each leg gets its own noise generator and parameters
    const legs = [
      { el: document.getElementById('leg0'), noise: new PerlinNoise(1), baseX: -16, baseY: 32, freqX: 0.8, freqY: 1.2, ampX: 3, ampY: 6, phase: 0 },
      { el: document.getElementById('leg1'), noise: new PerlinNoise(2), baseX: -10, baseY: 32, freqX: 1.1, freqY: 0.9, ampX: 2.5, ampY: 5, phase: 0.7 },
      { el: document.getElementById('leg2'), noise: new PerlinNoise(3), baseX: 6, baseY: 32, freqX: 0.9, freqY: 1.0, ampX: 2.5, ampY: 5, phase: 1.4 },
      { el: document.getElementById('leg3'), noise: new PerlinNoise(4), baseX: 12, baseY: 32, freqX: 1.0, freqY: 1.3, ampX: 3, ampY: 6, phase: 2.1 }
    ];

    let time = 0;

    function animate() {
      if (window.isPaused) { requestAnimationFrame(animate); return; }
      time += 0.016; // ~60fps

      legs.forEach(leg => {
        // Perlin noise for organic motion
        const noiseX = leg.noise.noise1D(time * leg.freqX + leg.phase);
        const noiseY = leg.noise.noise1D(time * leg.freqY + leg.phase + 100);

        // Oscillation base + noise modulation
        const oscX = Math.sin(time * 2 + leg.phase) * 0.5;
        const oscY = Math.sin(time * 3 + leg.phase) * 0.5;

        // Combined translation
        const dx = (noiseX + oscX) * leg.ampX;
        const dy = (noiseY + oscY) * leg.ampY;

        // Mirror effect (scale flip based on noise)
        const scaleX = noiseX > 0 ? 1 : -1;

        leg.el.setAttribute('x', leg.baseX + dx);
        leg.el.setAttribute('y', leg.baseY + Math.abs(dy));
      });

      requestAnimationFrame(animate);
    }

    animate();
  ]]></script>
</svg>