<!--
  Prompt: "This looks really close! I noticed that the arrows have three keys below them that shouldn't be there."

  Fixed arrow keys - proper inverted-T shape with up arrow alone.
-->
<svg xmlns="http://www.w3.org/2000/svg" viewBox="0 0 200 120" width="400" height="240">
  <defs>
    <linearGradient id="keyTop" x1="0%" y1="0%" x2="0%" y2="100%">
      <stop offset="0%" style="stop-color:#666"/>
      <stop offset="100%" style="stop-color:#444"/>
    </linearGradient>
  </defs>

  <style>
    .body { fill: #dc7974; }
    .keyboard-base { fill: #0a0a0a; }
    .key-well { fill: #111; }
    .key-cap { fill: url(#keyTop); }
    .tentacle {
      fill: none;
      stroke: #dc7974;
      stroke-width: 4;
      stroke-linecap: round;
    }
  </style>

  <!-- Keyboard base - TKL style, normal orientation (F-row at top, spacebar at bottom) -->
  <rect class="keyboard-base" x="40" y="58" width="120" height="42" rx="2"/>
  <rect class="key-well" x="42" y="60" width="116" height="38" rx="1"/>

  <!-- Keys - TKL layout, normal orientation -->
  <!-- Row 1: Function row - y=62, closest to Claudito -->
  <rect class="key-cap" x="44" y="62" width="5" height="5" rx="0.5"/>
  <rect class="key-cap" x="52" y="62" width="5" height="5" rx="0.5"/>
  <rect class="key-cap" x="58" y="62" width="5" height="5" rx="0.5"/>
  <rect class="key-cap" x="64" y="62" width="5" height="5" rx="0.5"/>
  <rect class="key-cap" x="70" y="62" width="5" height="5" rx="0.5"/>
  <rect class="key-cap" x="78" y="62" width="5" height="5" rx="0.5"/>
  <rect class="key-cap" x="84" y="62" width="5" height="5" rx="0.5"/>
  <rect class="key-cap" x="90" y="62" width="5" height="5" rx="0.5"/>
  <rect class="key-cap" x="96" y="62" width="5" height="5" rx="0.5"/>
  <rect class="key-cap" x="104" y="62" width="5" height="5" rx="0.5"/>
  <rect class="key-cap" x="110" y="62" width="5" height="5" rx="0.5"/>
  <rect class="key-cap" x="116" y="62" width="5" height="5" rx="0.5"/>
  <rect class="key-cap" x="125" y="62" width="5" height="5" rx="0.5"/>
  <rect class="key-cap" x="131" y="62" width="5" height="5" rx="0.5"/>
  <rect class="key-cap" x="137" y="62" width="5" height="5" rx="0.5"/>

  <!-- Row 2: Number row - y=68 -->
  <rect class="key-cap" x="44" y="68" width="5" height="5" rx="0.5"/>
  <rect class="key-cap" x="50" y="68" width="5" height="5" rx="0.5"/>
  <rect class="key-cap" x="56" y="68" width="5" height="5" rx="0.5"/>
  <rect class="key-cap" x="62" y="68" width="5" height="5" rx="0.5"/>
  <rect class="key-cap" x="68" y="68" width="5" height="5" rx="0.5"/>
  <rect class="key-cap" x="74" y="68" width="5" height="5" rx="0.5"/>
  <rect class="key-cap" x="80" y="68" width="5" height="5" rx="0.5"/>
  <rect class="key-cap" x="86" y="68" width="5" height="5" rx="0.5"/>
  <rect class="key-cap" x="92" y="68" width="5" height="5" rx="0.5"/>
  <rect class="key-cap" x="98" y="68" width="5" height="5" rx="0.5"/>
  <rect class="key-cap" x="104" y="68" width="5" height="5" rx="0.5"/>
  <rect class="key-cap" x="110" y="68" width="5" height="5" rx="0.5"/>
  <rect class="key-cap" x="116" y="68" width="5" height="5" rx="0.5"/>
  <rect class="key-cap" x="125" y="68" width="5" height="5" rx="0.5"/>
  <rect class="key-cap" x="131" y="68" width="5" height="5" rx="0.5"/>
  <rect class="key-cap" x="137" y="68" width="5" height="5" rx="0.5"/>

  <!-- Row 3: QWERTY row - y=74 -->
  <rect class="key-cap" x="44" y="74" width="7" height="5" rx="0.5"/>
  <rect class="key-cap" x="52" y="74" width="5" height="5" rx="0.5"/>
  <rect class="key-cap" x="58" y="74" width="5" height="5" rx="0.5"/>
  <rect class="key-cap" x="64" y="74" width="5" height="5" rx="0.5"/>
  <rect class="key-cap" x="70" y="74" width="5" height="5" rx="0.5"/>
  <rect class="key-cap" x="76" y="74" width="5" height="5" rx="0.5"/>
  <rect class="key-cap" x="82" y="74" width="5" height="5" rx="0.5"/>
  <rect class="key-cap" x="88" y="74" width="5" height="5" rx="0.5"/>
  <rect class="key-cap" x="94" y="74" width="5" height="5" rx="0.5"/>
  <rect class="key-cap" x="100" y="74" width="5" height="5" rx="0.5"/>
  <rect class="key-cap" x="106" y="74" width="5" height="5" rx="0.5"/>
  <rect class="key-cap" x="112" y="74" width="5" height="5" rx="0.5"/>
  <rect class="key-cap" x="118" y="74" width="3" height="5" rx="0.5"/>
  <rect class="key-cap" x="125" y="74" width="5" height="5" rx="0.5"/>
  <rect class="key-cap" x="131" y="74" width="5" height="5" rx="0.5"/>
  <rect class="key-cap" x="137" y="74" width="5" height="5" rx="0.5"/>

  <!-- Row 4: ASDF row - y=80 -->
  <rect class="key-cap" x="44" y="80" width="8" height="5" rx="0.5"/>
  <rect class="key-cap" x="53" y="80" width="5" height="5" rx="0.5"/>
  <rect class="key-cap" x="59" y="80" width="5" height="5" rx="0.5"/>
  <rect class="key-cap" x="65" y="80" width="5" height="5" rx="0.5"/>
  <rect class="key-cap" x="71" y="80" width="5" height="5" rx="0.5"/>
  <rect class="key-cap" x="77" y="80" width="5" height="5" rx="0.5"/>
  <rect class="key-cap" x="83" y="80" width="5" height="5" rx="0.5"/>
  <rect class="key-cap" x="89" y="80" width="5" height="5" rx="0.5"/>
  <rect class="key-cap" x="95" y="80" width="5" height="5" rx="0.5"/>
  <rect class="key-cap" x="101" y="80" width="5" height="5" rx="0.5"/>
  <rect class="key-cap" x="107" y="80" width="5" height="5" rx="0.5"/>
  <rect class="key-cap" x="113" y="80" width="8" height="5" rx="0.5"/>
  <rect class="key-cap" x="131" y="80" width="5" height="5" rx="0.5"/>

  <!-- Row 5: ZXCV row - y=86 -->
  <rect class="key-cap" x="44" y="86" width="10" height="5" rx="0.5"/>
  <rect class="key-cap" x="55" y="86" width="5" height="5" rx="0.5"/>
  <rect class="key-cap" x="61" y="86" width="5" height="5" rx="0.5"/>
  <rect class="key-cap" x="67" y="86" width="5" height="5" rx="0.5"/>
  <rect class="key-cap" x="73" y="86" width="5" height="5" rx="0.5"/>
  <rect class="key-cap" x="79" y="86" width="5" height="5" rx="0.5"/>
  <rect class="key-cap" x="85" y="86" width="5" height="5" rx="0.5"/>
  <rect class="key-cap" x="91" y="86" width="5" height="5" rx="0.5"/>
  <rect class="key-cap" x="97" y="86" width="5" height="5" rx="0.5"/>
  <rect class="key-cap" x="103" y="86" width="5" height="5" rx="0.5"/>
  <rect class="key-cap" x="109" y="86" width="12" height="5" rx="0.5"/>
  <!-- Up arrow only -->
  <rect class="key-cap" x="131" y="86" width="5" height="5" rx="0.5"/>

  <!-- Row 6: Spacebar row - y=92, furthest from Claudito -->
  <rect class="key-cap" x="44" y="92" width="6" height="5" rx="0.5"/>
  <rect class="key-cap" x="51" y="92" width="6" height="5" rx="0.5"/>
  <rect class="key-cap" x="58" y="92" width="6" height="5" rx="0.5"/>
  <rect class="key-cap" x="65" y="92" width="32" height="5" rx="0.5"/>
  <rect class="key-cap" x="98" y="92" width="6" height="5" rx="0.5"/>
  <rect class="key-cap" x="105" y="92" width="6" height="5" rx="0.5"/>
  <rect class="key-cap" x="112" y="92" width="6" height="5" rx="0.5"/>
  <rect class="key-cap" x="125" y="92" width="5" height="5" rx="0.5"/>
  <rect class="key-cap" x="131" y="92" width="5" height="5" rx="0.5"/>
  <rect class="key-cap" x="137" y="92" width="5" height="5" rx="0.5"/>

  <!-- Tentacle legs -->
  <path id="leg0" class="tentacle"/>
  <path id="leg1" class="tentacle"/>
  <path id="leg2" class="tentacle"/>
  <path id="leg3" class="tentacle"/>

  <!-- Claudito body -->
  <g id="claudito" transform="translate(100, 18)">
    <g class="body">
      <rect x="-28" y="0" width="4" height="16"/>
      <rect x="-24" y="0" width="8" height="8"/>
      <rect x="-24" y="8" width="4" height="8"/>
      <rect x="-16" y="0" width="24" height="16"/>
      <rect x="8" y="0" width="8" height="8"/>
      <rect x="12" y="8" width="4" height="8"/>
      <rect x="16" y="0" width="4" height="16"/>
    </g>

    <g class="body">
      <rect x="-36" y="16" width="4" height="8"/>
      <rect x="-32" y="16" width="8" height="8"/>
      <rect x="-28" y="24" width="4" height="8"/>
      <rect x="-24" y="16" width="40" height="16"/>
      <rect x="16" y="16" width="8" height="8"/>
      <rect x="16" y="24" width="4" height="8"/>
      <rect x="24" y="16" width="4" height="8"/>
    </g>
  </g>

  <script type="text/javascript"><![CDATA[
    class PerlinNoise {
      constructor(seed = Math.random() * 10000) {
        this.p = [];
        for (let i = 0; i < 256; i++) this.p[i] = i;
        let n = seed;
        for (let i = 255; i > 0; i--) {
          n = (n * 16807) % 2147483647;
          const j = n % (i + 1);
          [this.p[i], this.p[j]] = [this.p[j], this.p[i]];
        }
        this.p = this.p.concat(this.p);
      }
      fade(t) { return t * t * t * (t * (t * 6 - 15) + 10); }
      lerp(a, b, t) { return a + t * (b - a); }
      grad(hash, x) { return (hash & 1) === 0 ? x : -x; }
      noise1D(x) {
        const xi = Math.floor(x) & 255;
        const xf = x - Math.floor(x);
        const u = this.fade(xf);
        return this.lerp(this.grad(this.p[xi], xf), this.grad(this.p[xi + 1], xf - 1), u);
      }
    }

    // Key positions (center of each key) - TKL keyboard, normal orientation
    const allKeys = [
      // Row 1: Function row - y=64, closest to Claudito
      { x: 46.5, y: 64 }, { x: 54.5, y: 64 }, { x: 60.5, y: 64 }, { x: 66.5, y: 64 }, { x: 72.5, y: 64 },
      { x: 80.5, y: 64 }, { x: 86.5, y: 64 }, { x: 92.5, y: 64 }, { x: 98.5, y: 64 }, { x: 106.5, y: 64 },
      { x: 112.5, y: 64 }, { x: 118.5, y: 64 }, { x: 127.5, y: 64 }, { x: 133.5, y: 64 }, { x: 139.5, y: 64 },
      // Row 2: Number row - y=70
      { x: 46.5, y: 70 }, { x: 52.5, y: 70 }, { x: 58.5, y: 70 }, { x: 64.5, y: 70 }, { x: 70.5, y: 70 },
      { x: 76.5, y: 70 }, { x: 82.5, y: 70 }, { x: 88.5, y: 70 }, { x: 94.5, y: 70 }, { x: 100.5, y: 70 },
      { x: 106.5, y: 70 }, { x: 112.5, y: 70 }, { x: 118.5, y: 70 }, { x: 127.5, y: 70 }, { x: 133.5, y: 70 }, { x: 139.5, y: 70 },
      // Row 3: QWERTY row - y=76
      { x: 47.5, y: 76 }, { x: 54.5, y: 76 }, { x: 60.5, y: 76 }, { x: 66.5, y: 76 }, { x: 72.5, y: 76 },
      { x: 78.5, y: 76 }, { x: 84.5, y: 76 }, { x: 90.5, y: 76 }, { x: 96.5, y: 76 }, { x: 102.5, y: 76 },
      { x: 108.5, y: 76 }, { x: 114.5, y: 76 }, { x: 119.5, y: 76 }, { x: 127.5, y: 76 }, { x: 133.5, y: 76 }, { x: 139.5, y: 76 },
      // Row 4: ASDF row - y=82
      { x: 48, y: 82 }, { x: 55.5, y: 82 }, { x: 61.5, y: 82 }, { x: 67.5, y: 82 }, { x: 73.5, y: 82 },
      { x: 79.5, y: 82 }, { x: 85.5, y: 82 }, { x: 91.5, y: 82 }, { x: 97.5, y: 82 }, { x: 103.5, y: 82 },
      { x: 109.5, y: 82 }, { x: 117, y: 82 }, { x: 133.5, y: 82 },
      // Row 5: ZXCV row - y=88 (up arrow at 133.5)
      { x: 49, y: 88 }, { x: 57.5, y: 88 }, { x: 63.5, y: 88 }, { x: 69.5, y: 88 }, { x: 75.5, y: 88 },
      { x: 81.5, y: 88 }, { x: 87.5, y: 88 }, { x: 93.5, y: 88 }, { x: 99.5, y: 88 }, { x: 105.5, y: 88 },
      { x: 115, y: 88 }, { x: 133.5, y: 88 },
      // Row 6: Spacebar row - y=94, furthest from Claudito
      { x: 47, y: 94 }, { x: 54, y: 94 }, { x: 61, y: 94 }, { x: 81, y: 94 }, { x: 101, y: 94 },
      { x: 108, y: 94 }, { x: 115, y: 94 }, { x: 127.5, y: 94 }, { x: 133.5, y: 94 }, { x: 139.5, y: 94 }
    ];

    // Keys grouped by region for each tentacle - TKL keyboard
    const keyRegions = [
      // Leg 0: left side
      allKeys.filter(k => k.x < 75),
      // Leg 1: left-center
      allKeys.filter(k => k.x >= 60 && k.x < 100),
      // Leg 2: right-center
      allKeys.filter(k => k.x >= 85 && k.x < 125),
      // Leg 3: right side
      allKeys.filter(k => k.x >= 110)
    ];

    // Tap animation curve
    function tapCurve(progress) {
      if (progress < 0.12) {
        // Anticipation: pull back
        const t = progress / 0.12;
        return { reach: -0.15 * Math.sin(t * Math.PI), curl: -0.3 * t };
      } else if (progress < 0.35) {
        // Strike: fast move to key
        const t = (progress - 0.12) / 0.23;
        const ease = t * t;
        return { reach: ease, curl: 0.4 * ease };
      } else if (progress < 0.5) {
        // Impact hold
        const t = (progress - 0.35) / 0.15;
        return { reach: 1.0, curl: 0.4 - 0.1 * Math.sin(t * Math.PI) };
      } else {
        // Return
        const t = (progress - 0.5) / 0.5;
        const ease = 1 - (1 - t) * (1 - t);
        return { reach: 1 - ease, curl: 0.3 * (1 - ease) };
      }
    }

    function lerp(a, b, t) {
      return a + (b - a) * t;
    }

    const clauditoX = 100;
    const clauditoY = 18;

    const tentacles = [
      {
        el: document.getElementById('leg0'),
        anchorX: clauditoX - 18,
        anchorY: clauditoY + 34,
        // Hover position (above keys)
        hoverX: 60,
        hoverY: 58,
        keys: keyRegions[0],
        noise: {
          curl1: new PerlinNoise(1),
          curl2: new PerlinNoise(11),
          sway: new PerlinNoise(21),
          hover: new PerlinNoise(31),
          keySelect: new PerlinNoise(41)
        },
        phase: 0,
        tapping: false,
        tapProgress: 0,
        tapDuration: 0.45,
        lastTapTime: 0,
        nextTapDelay: 0.08,
        targetKey: null,
        preTapX: 0,
        preTapY: 0
      },
      {
        el: document.getElementById('leg1'),
        anchorX: clauditoX - 10,
        anchorY: clauditoY + 34,
        hoverX: 80,
        hoverY: 58,
        keys: keyRegions[1],
        noise: {
          curl1: new PerlinNoise(2),
          curl2: new PerlinNoise(12),
          sway: new PerlinNoise(22),
          hover: new PerlinNoise(32),
          keySelect: new PerlinNoise(42)
        },
        phase: 1.3,
        tapping: false,
        tapProgress: 0,
        tapDuration: 0.40,
        lastTapTime: 0.12,
        nextTapDelay: 0.06,
        targetKey: null,
        preTapX: 0,
        preTapY: 0
      },
      {
        el: document.getElementById('leg2'),
        anchorX: clauditoX + 10,
        anchorY: clauditoY + 34,
        hoverX: 105,
        hoverY: 58,
        keys: keyRegions[2],
        noise: {
          curl1: new PerlinNoise(3),
          curl2: new PerlinNoise(13),
          sway: new PerlinNoise(23),
          hover: new PerlinNoise(33),
          keySelect: new PerlinNoise(43)
        },
        phase: 2.7,
        tapping: false,
        tapProgress: 0,
        tapDuration: 0.42,
        lastTapTime: 0.18,
        nextTapDelay: 0.07,
        targetKey: null,
        preTapX: 0,
        preTapY: 0
      },
      {
        el: document.getElementById('leg3'),
        anchorX: clauditoX + 18,
        anchorY: clauditoY + 34,
        hoverX: 130,
        hoverY: 58,
        keys: keyRegions[3],
        noise: {
          curl1: new PerlinNoise(4),
          curl2: new PerlinNoise(14),
          sway: new PerlinNoise(24),
          hover: new PerlinNoise(34),
          keySelect: new PerlinNoise(44)
        },
        phase: 4.1,
        tapping: false,
        tapProgress: 0,
        tapDuration: 0.44,
        lastTapTime: 0.25,
        nextTapDelay: 0.09,
        targetKey: null,
        preTapX: 0,
        preTapY: 0
      }
    ];

    let time = 0;
    let lastTime = performance.now();

    function animate(currentTime) {
      const deltaTime = (currentTime - lastTime) / 1000;
      lastTime = currentTime;
      time += deltaTime;

      tentacles.forEach(t => {
        const p = t.phase;
        const n = t.noise;

        // Hover movement (when not tapping)
        const hoverOffsetX = n.hover.noise1D(time * 0.4 + p) * 15;
        const hoverOffsetY = n.hover.noise1D(time * 0.5 + p + 100) * 8;

        // Handle tap timing
        if (!t.tapping) {
          if (time - t.lastTapTime > t.nextTapDelay) {
            // Start a new tap - select target key
            const keyNoise = n.keySelect.noise1D(time * 2 + p);
            const keyIndex = Math.floor((keyNoise * 0.5 + 0.5) * t.keys.length);
            t.targetKey = t.keys[Math.min(keyIndex, t.keys.length - 1)];

            // Store pre-tap position
            t.preTapX = t.hoverX + hoverOffsetX;
            t.preTapY = t.hoverY + hoverOffsetY;

            t.tapping = true;
            t.tapProgress = 0;
            // Mostly continuous typing with occasional pauses
            const pauseChance = n.keySelect.noise1D(time * 0.3 + p + 50);
            if (pauseChance > 0.7) {
              // Occasional pause (thinking moment)
              t.nextTapDelay = 0.4 + (pauseChance - 0.7) * 2.0;
            } else {
              // Continuous typing - very short delay
              t.nextTapDelay = 0.02 + Math.random() * 0.08;
            }
          }
        } else {
          t.tapProgress += deltaTime / t.tapDuration;
          if (t.tapProgress >= 1) {
            t.tapping = false;
            t.tapProgress = 0;
            t.lastTapTime = time;
          }
        }

        // Calculate tip position
        let tipX, tipY;

        if (t.tapping && t.targetKey) {
          const tap = tapCurve(t.tapProgress);

          // Interpolate from pre-tap position to target key
          tipX = lerp(t.preTapX, t.targetKey.x, tap.reach);
          tipY = lerp(t.preTapY, t.targetKey.y, tap.reach);

          // During anticipation, pull back slightly
          if (tap.reach < 0) {
            tipY += tap.reach * 10; // Pull up
          }
        } else {
          // Hovering
          tipX = t.hoverX + hoverOffsetX;
          tipY = t.hoverY + hoverOffsetY;
        }

        // Calculate bezier curve
        const dx = tipX - t.anchorX;
        const dy = tipY - t.anchorY;
        const dist = Math.sqrt(dx * dx + dy * dy);

        const perpX = -dy / dist;
        const perpY = dx / dist;

        // Get tap curl modifier
        const tapCurl = t.tapping ? tapCurve(t.tapProgress).curl : 0;

        // Organic curl with tap modifier
        const baseCurl1 = n.curl1.noise1D(time * 1.0 + p) * 16;
        const baseCurl2 = n.curl2.noise1D(time * 1.3 + p + 10) * 20;

        const curl1 = baseCurl1 * (1 + tapCurl);
        const curl2 = baseCurl2 * (1 + tapCurl * 0.6);

        const sway1 = n.sway.noise1D(time * 0.5 + p) * 5;
        const sway2 = n.sway.noise1D(time * 0.7 + p + 5) * 7;

        const cp1x = t.anchorX + dx * 0.33 + perpX * curl1 + sway1;
        const cp1y = t.anchorY + dy * 0.33 + perpY * curl1;

        const cp2x = t.anchorX + dx * 0.66 + perpX * curl2 + sway2;
        const cp2y = t.anchorY + dy * 0.66 + perpY * curl2;

        const path = `M ${t.anchorX} ${t.anchorY} C ${cp1x} ${cp1y}, ${cp2x} ${cp2y}, ${tipX} ${tipY}`;
        t.el.setAttribute('d', path);
      });

      requestAnimationFrame(animate);
    }

    requestAnimationFrame(animate);
  ]]></script>
</svg>